<svg width="35" height="33" viewBox="0 0 35 33" fill="none" xmlns="http://www.w3.org/2000/svg">
<path d="M31.25 0H3.75C1.67969 0 0 1.58371 0 3.53571V29.4643C0 31.4163 1.67969 33 3.75 33H31.25C33.3203 33 35 31.4163 35 29.4643V3.53571C35 1.58371 33.3203 0 31.25 0ZM21.6641 28.2636C21.0078 28.3741 20.7656 27.9911 20.7656 27.6743C20.7656 27.2766 20.7812 25.2435 20.7812 23.6009C20.7812 22.4518 20.375 21.7225 19.8984 21.3395C22.7891 21.0375 25.8359 20.6618 25.8359 15.9549C25.8359 14.6143 25.3281 13.944 24.5 13.0821C24.6328 12.7654 25.0781 11.4616 24.3672 9.76741C23.2812 9.45067 20.7969 11.0859 20.7969 11.0859C19.7656 10.8134 18.6484 10.6734 17.5469 10.6734C16.4453 10.6734 15.3281 10.8134 14.2969 11.0859C14.2969 11.0859 11.8125 9.45067 10.7266 9.76741C10.0156 11.4542 10.4531 12.758 10.5938 13.0821C9.76562 13.944 9.375 14.6143 9.375 15.9549C9.375 20.6397 12.2891 21.0375 15.1797 21.3395C14.8047 21.6563 14.4688 22.2013 14.3516 22.9821C13.6094 23.2989 11.7109 23.844 10.5781 21.9583C9.86719 20.7944 8.58594 20.6987 8.58594 20.6987C7.32031 20.6839 8.5 21.45 8.5 21.45C9.34375 21.8183 9.9375 23.2326 9.9375 23.2326C10.6953 25.4203 14.3203 24.6837 14.3203 24.6837C14.3203 25.7076 14.3359 27.3723 14.3359 27.6743C14.3359 27.9911 14.1016 28.3741 13.4375 28.2636C8.28125 26.6357 4.67188 22.0098 4.67188 16.6031C4.67188 9.84107 10.1562 4.70692 17.3281 4.70692C24.5 4.70692 30.3125 9.84107 30.3125 16.6031C30.3203 22.0098 26.8203 26.6431 21.6641 28.2636ZM14 23.7629C13.8516 23.7924 13.7109 23.7335 13.6953 23.6377C13.6797 23.5272 13.7812 23.4315 13.9297 23.402C14.0781 23.3873 14.2188 23.4462 14.2344 23.542C14.2578 23.6377 14.1562 23.7335 14 23.7629ZM13.2578 23.6967C13.2578 23.7924 13.1406 23.8734 12.9844 23.8734C12.8125 23.8882 12.6953 23.8071 12.6953 23.6967C12.6953 23.6009 12.8125 23.5199 12.9688 23.5199C13.1172 23.5051 13.2578 23.5862 13.2578 23.6967ZM12.1875 23.6156C12.1562 23.7114 12 23.7556 11.8672 23.7114C11.7188 23.6819 11.6172 23.5714 11.6484 23.4757C11.6797 23.3799 11.8359 23.3357 11.9688 23.3652C12.125 23.4094 12.2266 23.5199 12.1875 23.6156ZM11.2266 23.2179C11.1562 23.2989 11.0078 23.2842 10.8906 23.1737C10.7734 23.0779 10.7422 22.9379 10.8203 22.8717C10.8906 22.7906 11.0391 22.8054 11.1562 22.9158C11.2578 23.0116 11.2969 23.1589 11.2266 23.2179ZM10.5156 22.5475C10.4453 22.5917 10.3125 22.5475 10.2266 22.4371C10.1406 22.3266 10.1406 22.2013 10.2266 22.1498C10.3125 22.0835 10.4453 22.135 10.5156 22.2455C10.6016 22.356 10.6016 22.4886 10.5156 22.5475ZM10.0078 21.833C9.9375 21.8993 9.82031 21.8625 9.73438 21.7888C9.64844 21.6931 9.63281 21.5826 9.70312 21.531C9.77344 21.4647 9.89062 21.5016 9.97656 21.5752C10.0625 21.671 10.0781 21.7815 10.0078 21.833ZM9.48438 21.2879C9.45312 21.3542 9.35156 21.369 9.26562 21.3174C9.16406 21.2732 9.11719 21.1922 9.14844 21.1259C9.17969 21.0817 9.26562 21.0596 9.36719 21.0964C9.46875 21.148 9.51562 21.229 9.48438 21.2879Z" fill="#00171F"/>
</svg>
