<svg width="34" height="33" viewBox="0 0 34 33" fill="none" xmlns="http://www.w3.org/2000/svg">
<path d="M0 0V33H34V0H0ZM28.2473 7.8154L26.4259 9.5096C26.2665 9.62746 26.1906 9.81897 26.221 10.0031V22.4739C26.1906 22.6654 26.2665 22.8569 26.4259 22.9674L28.2094 24.6616V25.0373H19.254V24.6763L21.0982 22.9379C21.2804 22.7612 21.2804 22.7096 21.2804 22.4444V12.3603L16.15 25.0004H15.4594L9.48661 12.3603V20.8312C9.43348 21.1848 9.5625 21.5458 9.82054 21.8036L12.2188 24.6248V25.0004H5.40357V24.6248L7.80179 21.8036C8.05982 21.5458 8.17366 21.1848 8.11295 20.8312V11.0344C8.1433 10.7618 8.03705 10.4967 7.82455 10.3125L5.69196 7.8154V7.43973H12.3174L17.4326 18.3415L21.933 7.4471H28.2473V7.8154Z" fill="#00171F"/>
</svg>
