<svg width="167" height="36" viewBox="0 0 167 36" fill="none" xmlns="http://www.w3.org/2000/svg">
<path d="M1.752 27V9.648H7.74C8.876 9.648 9.844 9.756 10.644 9.972C11.452 10.188 12.112 10.496 12.624 10.896C13.144 11.296 13.524 11.78 13.764 12.348C14.004 12.916 14.124 13.556 14.124 14.268C14.124 14.676 14.064 15.068 13.944 15.444C13.824 15.812 13.636 16.16 13.38 16.488C13.132 16.808 12.812 17.1 12.42 17.364C12.036 17.628 11.576 17.852 11.04 18.036C13.424 18.572 14.616 19.86 14.616 21.9C14.616 22.636 14.476 23.316 14.196 23.94C13.916 24.564 13.508 25.104 12.972 25.56C12.436 26.008 11.776 26.36 10.992 26.616C10.208 26.872 9.312 27 8.304 27H1.752ZM4.98 19.392V24.48H8.256C8.856 24.48 9.356 24.408 9.756 24.264C10.164 24.12 10.488 23.928 10.728 23.688C10.976 23.448 11.152 23.168 11.256 22.848C11.368 22.528 11.424 22.188 11.424 21.828C11.424 21.452 11.364 21.116 11.244 20.82C11.124 20.516 10.936 20.26 10.68 20.052C10.424 19.836 10.096 19.672 9.696 19.56C9.296 19.448 8.812 19.392 8.244 19.392H4.98ZM4.98 17.16H7.56C8.656 17.16 9.488 16.96 10.056 16.56C10.624 16.16 10.908 15.524 10.908 14.652C10.908 13.748 10.652 13.104 10.14 12.72C9.628 12.336 8.828 12.144 7.74 12.144H4.98V17.16ZM26.8648 27H25.5328C25.2528 27 25.0328 26.96 24.8728 26.88C24.7128 26.792 24.5928 26.62 24.5128 26.364L24.2488 25.488C23.9368 25.768 23.6288 26.016 23.3248 26.232C23.0288 26.44 22.7208 26.616 22.4008 26.76C22.0808 26.904 21.7408 27.012 21.3808 27.084C21.0208 27.156 20.6208 27.192 20.1808 27.192C19.6608 27.192 19.1808 27.124 18.7408 26.988C18.3008 26.844 17.9208 26.632 17.6008 26.352C17.2888 26.072 17.0448 25.724 16.8688 25.308C16.6928 24.892 16.6048 24.408 16.6048 23.856C16.6048 23.392 16.7248 22.936 16.9648 22.488C17.2128 22.032 17.6208 21.624 18.1888 21.264C18.7568 20.896 19.5128 20.592 20.4568 20.352C21.4008 20.112 22.5728 19.976 23.9728 19.944V19.224C23.9728 18.4 23.7968 17.792 23.4448 17.4C23.1008 17 22.5968 16.8 21.9328 16.8C21.4528 16.8 21.0528 16.856 20.7328 16.968C20.4128 17.08 20.1328 17.208 19.8928 17.352C19.6608 17.488 19.4448 17.612 19.2448 17.724C19.0448 17.836 18.8248 17.892 18.5848 17.892C18.3848 17.892 18.2128 17.84 18.0688 17.736C17.9248 17.632 17.8088 17.504 17.7208 17.352L17.1808 16.404C18.5968 15.108 20.3048 14.46 22.3048 14.46C23.0248 14.46 23.6648 14.58 24.2248 14.82C24.7928 15.052 25.2728 15.38 25.6648 15.804C26.0568 16.22 26.3528 16.72 26.5528 17.304C26.7608 17.888 26.8648 18.528 26.8648 19.224V27ZM21.1048 25.152C21.4088 25.152 21.6888 25.124 21.9448 25.068C22.2008 25.012 22.4408 24.928 22.6648 24.816C22.8968 24.704 23.1168 24.568 23.3248 24.408C23.5408 24.24 23.7568 24.044 23.9728 23.82V21.744C23.1088 21.784 22.3848 21.86 21.8008 21.972C21.2248 22.076 20.7608 22.212 20.4088 22.38C20.0568 22.548 19.8048 22.744 19.6528 22.968C19.5088 23.192 19.4368 23.436 19.4368 23.7C19.4368 24.22 19.5888 24.592 19.8928 24.816C20.2048 25.04 20.6088 25.152 21.1048 25.152ZM38.4313 17.292C38.3433 17.404 38.2553 17.492 38.1673 17.556C38.0873 17.62 37.9673 17.652 37.8073 17.652C37.6553 17.652 37.5073 17.608 37.3633 17.52C37.2193 17.424 37.0473 17.32 36.8473 17.208C36.6473 17.088 36.4073 16.984 36.1273 16.896C35.8553 16.8 35.5153 16.752 35.1073 16.752C34.5873 16.752 34.1313 16.848 33.7393 17.04C33.3473 17.224 33.0193 17.492 32.7553 17.844C32.4993 18.196 32.3073 18.624 32.1793 19.128C32.0513 19.624 31.9873 20.188 31.9873 20.82C31.9873 21.476 32.0553 22.06 32.1913 22.572C32.3353 23.084 32.5393 23.516 32.8033 23.868C33.0673 24.212 33.3873 24.476 33.7633 24.66C34.1393 24.836 34.5633 24.924 35.0353 24.924C35.5073 24.924 35.8873 24.868 36.1753 24.756C36.4713 24.636 36.7193 24.508 36.9193 24.372C37.1193 24.228 37.2913 24.1 37.4353 23.988C37.5873 23.868 37.7553 23.808 37.9393 23.808C38.1793 23.808 38.3593 23.9 38.4793 24.084L39.3313 25.164C39.0033 25.548 38.6473 25.872 38.2633 26.136C37.8793 26.392 37.4793 26.6 37.0633 26.76C36.6553 26.912 36.2313 27.02 35.7913 27.084C35.3513 27.148 34.9153 27.18 34.4833 27.18C33.7233 27.18 33.0073 27.04 32.3353 26.76C31.6633 26.472 31.0753 26.056 30.5713 25.512C30.0753 24.968 29.6793 24.304 29.3833 23.52C29.0953 22.728 28.9513 21.828 28.9513 20.82C28.9513 19.916 29.0793 19.08 29.3353 18.312C29.5993 17.536 29.9833 16.868 30.4873 16.308C30.9913 15.74 31.6153 15.296 32.3593 14.976C33.1033 14.656 33.9593 14.496 34.9273 14.496C35.8473 14.496 36.6513 14.644 37.3393 14.94C38.0353 15.236 38.6593 15.66 39.2113 16.212L38.4313 17.292ZM44.2168 9.168V19.38H44.7688C44.9688 19.38 45.1248 19.352 45.2368 19.296C45.3488 19.24 45.4688 19.136 45.5968 18.984L48.6568 15.204C48.7928 15.044 48.9368 14.92 49.0888 14.832C49.2408 14.736 49.4408 14.688 49.6888 14.688H52.4008L48.5728 19.26C48.4368 19.428 48.2968 19.584 48.1528 19.728C48.0088 19.864 47.8528 19.984 47.6848 20.088C47.8528 20.208 48.0008 20.348 48.1288 20.508C48.2568 20.668 48.3848 20.84 48.5128 21.024L52.6168 27H49.9408C49.7088 27 49.5128 26.96 49.3528 26.88C49.1928 26.8 49.0488 26.664 48.9208 26.472L45.7888 21.804C45.6688 21.62 45.5488 21.5 45.4288 21.444C45.3088 21.388 45.1288 21.36 44.8888 21.36H44.2168V27H41.2528V9.168H44.2168ZM63.1436 27.192C62.0796 27.192 61.2596 26.892 60.6836 26.292C60.1076 25.684 59.8196 24.848 59.8196 23.784V16.908H58.5716C58.4116 16.908 58.2716 16.856 58.1516 16.752C58.0396 16.648 57.9836 16.492 57.9836 16.284V15.108L59.9636 14.784L60.5876 11.424C60.6196 11.264 60.6916 11.14 60.8036 11.052C60.9236 10.964 61.0716 10.92 61.2476 10.92H62.7836V14.796H66.0236V16.908H62.7836V23.58C62.7836 23.964 62.8796 24.264 63.0716 24.48C63.2636 24.696 63.5196 24.804 63.8396 24.804C64.0236 24.804 64.1756 24.784 64.2956 24.744C64.4236 24.696 64.5316 24.648 64.6196 24.6C64.7156 24.552 64.7996 24.508 64.8716 24.468C64.9436 24.42 65.0156 24.396 65.0876 24.396C65.1756 24.396 65.2476 24.42 65.3036 24.468C65.3596 24.508 65.4196 24.572 65.4836 24.66L66.3716 26.1C65.9396 26.46 65.4436 26.732 64.8836 26.916C64.3236 27.1 63.7436 27.192 63.1436 27.192ZM73.6369 14.496C74.5569 14.496 75.3889 14.644 76.1329 14.94C76.8849 15.236 77.5249 15.656 78.0529 16.2C78.5809 16.744 78.9889 17.408 79.2769 18.192C79.5649 18.976 79.7089 19.852 79.7089 20.82C79.7089 21.796 79.5649 22.676 79.2769 23.46C78.9889 24.244 78.5809 24.912 78.0529 25.464C77.5249 26.016 76.8849 26.44 76.1329 26.736C75.3889 27.032 74.5569 27.18 73.6369 27.18C72.7169 27.18 71.8809 27.032 71.1289 26.736C70.3769 26.44 69.7329 26.016 69.1969 25.464C68.6689 24.912 68.2569 24.244 67.9609 23.46C67.6729 22.676 67.5289 21.796 67.5289 20.82C67.5289 19.852 67.6729 18.976 67.9609 18.192C68.2569 17.408 68.6689 16.744 69.1969 16.2C69.7329 15.656 70.3769 15.236 71.1289 14.94C71.8809 14.644 72.7169 14.496 73.6369 14.496ZM73.6369 24.9C74.6609 24.9 75.4169 24.556 75.9049 23.868C76.4009 23.18 76.6489 22.172 76.6489 20.844C76.6489 19.516 76.4009 18.504 75.9049 17.808C75.4169 17.112 74.6609 16.764 73.6369 16.764C72.5969 16.764 71.8289 17.116 71.3329 17.82C70.8369 18.516 70.5889 19.524 70.5889 20.844C70.5889 22.164 70.8369 23.172 71.3329 23.868C71.8289 24.556 72.5969 24.9 73.6369 24.9ZM99.0581 9.648V12.3H93.8381V27H90.6101V12.3H85.3661V9.648H99.0581ZM103.754 14.496C104.674 14.496 105.506 14.644 106.25 14.94C107.002 15.236 107.642 15.656 108.17 16.2C108.698 16.744 109.106 17.408 109.394 18.192C109.682 18.976 109.826 19.852 109.826 20.82C109.826 21.796 109.682 22.676 109.394 23.46C109.106 24.244 108.698 24.912 108.17 25.464C107.642 26.016 107.002 26.44 106.25 26.736C105.506 27.032 104.674 27.18 103.754 27.18C102.834 27.18 101.998 27.032 101.246 26.736C100.494 26.44 99.8501 26.016 99.3141 25.464C98.7861 24.912 98.3741 24.244 98.0781 23.46C97.7901 22.676 97.6461 21.796 97.6461 20.82C97.6461 19.852 97.7901 18.976 98.0781 18.192C98.3741 17.408 98.7861 16.744 99.3141 16.2C99.8501 15.656 100.494 15.236 101.246 14.94C101.998 14.644 102.834 14.496 103.754 14.496ZM103.754 24.9C104.778 24.9 105.534 24.556 106.022 23.868C106.518 23.18 106.766 22.172 106.766 20.844C106.766 19.516 106.518 18.504 106.022 17.808C105.534 17.112 104.778 16.764 103.754 16.764C102.714 16.764 101.946 17.116 101.45 17.82C100.954 18.516 100.706 19.524 100.706 20.844C100.706 22.164 100.954 23.172 101.45 23.868C101.946 24.556 102.714 24.9 103.754 24.9ZM112.139 31.02V14.688H113.951C114.143 14.688 114.307 14.732 114.443 14.82C114.579 14.908 114.667 15.044 114.707 15.228L114.947 16.368C115.443 15.8 116.011 15.34 116.651 14.988C117.299 14.636 118.055 14.46 118.919 14.46C119.591 14.46 120.203 14.6 120.755 14.88C121.315 15.16 121.795 15.568 122.195 16.104C122.603 16.632 122.915 17.288 123.131 18.072C123.355 18.848 123.467 19.74 123.467 20.748C123.467 21.668 123.343 22.52 123.095 23.304C122.847 24.088 122.491 24.768 122.027 25.344C121.571 25.92 121.015 26.372 120.359 26.7C119.711 27.02 118.983 27.18 118.175 27.18C117.479 27.18 116.887 27.076 116.399 26.868C115.919 26.652 115.487 26.356 115.103 25.98V31.02H112.139ZM117.899 16.8C117.283 16.8 116.755 16.932 116.315 17.196C115.883 17.452 115.479 17.816 115.103 18.288V23.808C115.439 24.224 115.803 24.516 116.195 24.684C116.595 24.844 117.023 24.924 117.479 24.924C117.927 24.924 118.331 24.84 118.691 24.672C119.059 24.504 119.367 24.248 119.615 23.904C119.871 23.56 120.067 23.128 120.203 22.608C120.339 22.08 120.407 21.46 120.407 20.748C120.407 20.028 120.347 19.42 120.227 18.924C120.115 18.42 119.951 18.012 119.735 17.7C119.519 17.388 119.255 17.16 118.943 17.016C118.639 16.872 118.291 16.8 117.899 16.8Z" fill="#00A7E1"/>
<circle cx="153.5" cy="18.5" r="13.5" fill="#00A7E1"/>
<path d="M158.607 22.6503L160.057 21.2L153.886 15.0286L147.714 21.2L149.165 22.6503L153.886 17.9394L158.607 22.6503Z" fill="white"/>
</svg>
